<svg xmlns="http://www.w3.org/2000/svg" width="64" height="64"><g fill="none" fill-rule="evenodd" stroke="currentColor" stroke-linecap="round" stroke-linejoin="round" stroke-width="5"><path d="M5.973 35.303C.83 26.639 2.94 15.503 10.897 9.32c7.956-6.181 19.269-5.474 26.393 1.65 7.124 7.124 7.83 18.437 1.65 26.393-6.182 7.955-17.319 10.066-25.982 4.924l-6.902 1.968a1.663 1.663 0 0 1-2.051-2.051l1.968-6.902"/><path d="M22.05 45.06a19.93 19.93 0 0 0 28.992 10.532l6.902 1.968a1.663 1.663 0 0 0 2.051-2.05l-1.968-6.903a19.93 19.93 0 0 0-16.076-30.101"/></g></svg>