<svg xmlns="http://www.w3.org/2000/svg" width="64" height="64"><g fill="currentColor" fill-rule="evenodd"><path d="M32 58.67c-4.829 0-9.4-1.127-13.467-3.124l-6.602 8.452h40.133l-6.6-8.45A30.477 30.477 0 0 1 32 58.67"/><path fill-rule="nonzero" d="M32 56.002c15.44 0 28-12.56 28-28s-12.56-28-28-28-28 12.56-28 28 12.56 28 28 28m8-45.333a5.34 5.34 0 0 1 5.333 5.333c0 2.933-2.4 5.333-5.333 5.333a5.34 5.34 0 0 1-5.333-5.333A5.332 5.332 0 0 1 40 10.67Zm-8.002 1.329c.356 0 .71.018 1.062.041A7.942 7.942 0 0 0 32 16.002c0 4.412 3.589 8 8 8a7.983 7.983 0 0 0 6.32-3.113c1.108 2.152 1.678 4.527 1.678 7.109 0 8.822-7.177 16-16 16s-16-7.178-16-16 7.177-16 16-16"/></g></svg>