<?xml version="1.0" standalone="no"?>
<!DOCTYPE svg PUBLIC "-//W3C//DTD SVG 20010904//EN"
 "http://www.w3.org/TR/2001/REC-SVG-20010904/DTD/svg10.dtd">
<svg version="1.0" xmlns="http://www.w3.org/2000/svg"
 width="512.000000pt" height="512.000000pt" viewBox="0 0 512.000000 512.000000"
 preserveAspectRatio="xMidYMid meet">
<metadata>
Created by potrace 1.14, written by Peter Selinger 2001-2017
</metadata>
<g transform="translate(0.000000,512.000000) scale(0.100000,-0.100000)"
fill="#000000" stroke="none">
<path d="M2385 4950 c-921 -72 -1708 -648 -2049 -1498 -118 -292 -170 -566
-170 -892 0 -193 11 -307 45 -475 185 -920 894 -1647 1809 -1859 190 -44 330
-59 540 -59 367 0 679 69 1026 226 639 289 1153 922 1302 1602 49 221 64 358
64 565 0 284 -35 501 -123 764 -213 637 -691 1160 -1308 1431 -343 151 -769
224 -1136 195z m-552 -1121 c31 -16 415 -399 433 -431 16 -31 19 -105 4 -142
-5 -14 -64 -85 -131 -157 l-122 -130 23 -42 c80 -145 216 -315 394 -493 181
-181 338 -305 503 -399 l32 -19 116 110 c64 60 128 118 142 128 28 21 106 32
150 21 35 -8 429 -397 449 -442 20 -47 17 -104 -8 -151 -16 -27 -93 -100 -235
-221 -208 -177 -214 -181 -258 -181 -113 0 -293 54 -472 142 -547 268 -1159
876 -1429 1418 -88 177 -144 364 -144 480 l0 51 187 219 c105 124 200 226 217
234 36 18 118 21 149 5z m1102 -190 c307 -54 573 -321 639 -641 23 -110 21
-183 -4 -208 -20 -20 -65 -26 -86 -12 -21 13 -34 51 -34 94 0 74 -28 177 -71
267 -59 121 -178 240 -299 299 -96 47 -183 72 -251 72 -96 0 -145 43 -118 103
21 46 74 52 224 26z m32 -393 c136 -65 229 -190 255 -343 11 -68 11 -75 -8
-100 -24 -32 -69 -41 -97 -21 -13 9 -23 39 -32 91 -16 90 -48 151 -107 201
-49 42 -133 76 -189 76 -29 0 -47 7 -64 25 -31 30 -31 54 -3 90 21 27 24 27
96 22 56 -4 92 -14 149 -41z"/>
</g>
</svg>
